<svg xmlns="http://www.w3.org/2000/svg" width="1248" height="1248" viewBox="248 249 752 752">
  <defs>
    <linearGradient id="bg" x1="0" y1="0" x2="1" y2="1">
      <stop offset="0%" stop-color="#5265dd"/>
      <stop offset="55%" stop-color="#5962d8"/>
      <stop offset="100%" stop-color="#5360d1"/>
    </linearGradient>
    <radialGradient id="soft" cx="50%" cy="45%" r="75%">
      <stop offset="0%" stop-color="#ffffff" stop-opacity="0.05"/>
      <stop offset="100%" stop-color="#000000" stop-opacity="0.025"/>
    </radialGradient>
    <filter id="shadow" x="-20%" y="-20%" width="140%" height="140%">
      <feDropShadow dx="0" dy="7" stdDeviation="13" flood-color="#3f49b7" flood-opacity="0.10"/>
    </filter>
    <filter id="iconShadow" x="-20%" y="-20%" width="140%" height="140%">
      <feDropShadow dx="0" dy="4" stdDeviation="5" flood-color="#3f49b7" flood-opacity="0.10"/>
    </filter>
  </defs>
  <g filter="url(#shadow)">
    <rect x="284" y="281" width="677" height="694" rx="169" fill="url(#bg)"/>
    <rect x="284" y="281" width="677" height="694" rx="169" fill="url(#soft)"/>
  </g>

  <g fill="none" stroke="#ffffff" stroke-linecap="round" stroke-linejoin="round" filter="url(#iconShadow)">
    <path d="M432 834 V555 C432 521 449 500 477 483 L586 417 C611 402 636 402 661 417 L770 483 C798 500 815 521 815 555 V834" stroke-width="88"/>
    <path d="M553 765 L598 807 L690 711" stroke-width="41"/>
  </g>

  <path d="M664 547 C658 547 654 552 654 559 V618 C654 628 662 635 671 635 H728 C738 635 744 628 737 620 L672 552 C670 549 667 547 664 547 Z" fill="#ffffff" filter="url(#iconShadow)"/>
</svg>
